<?xml version="1.0" standalone="no"?>
<!DOCTYPE svg PUBLIC "-//W3C//DTD SVG 20010904//EN"
 "http://www.w3.org/TR/2001/REC-SVG-20010904/DTD/svg10.dtd">
<svg version="1.0" xmlns="http://www.w3.org/2000/svg"
 width="3000.000000pt" height="768.000000pt" viewBox="0 0 3000.000000 768.000000"
 preserveAspectRatio="xMidYMid meet">
<metadata>
Created by potrace 1.16, written by Peter Selinger 2001-2019
</metadata>
<g transform="translate(0.000000,768.000000) scale(0.100000,-0.100000)"
fill="#000000" stroke="none">
<path d="M4276 7302 c-37 -12 -87 -36 -110 -52 -22 -15 -761 -750 -1642 -1632
l-1601 -1603 -28 -74 c-54 -142 -34 -288 56 -406 46 -60 3181 -3194 3224
-3222 143 -94 335 -89 475 13 25 18 761 750 1636 1626 1241 1243 1596 1603
1611 1638 68 150 61 301 -20 425 -29 43 -3184 3201 -3232 3234 -110 76 -244
95 -369 53z m251 -129 c23 -10 68 -38 100 -63 74 -58 3044 -3028 3103 -3103
55 -70 91 -155 92 -216 0 -64 -34 -155 -79 -208 -21 -25 -44 -55 -52 -66 -23
-35 -2973 -2986 -3011 -3013 -19 -13 -59 -44 -89 -68 -30 -25 -57 -44 -60 -44
-3 1 -26 -4 -51 -11 -97 -28 -206 0 -289 75 -27 24 -53 44 -57 44 -12 0 -3014
3002 -3014 3014 0 4 -20 30 -44 57 -75 83 -103 192 -75 289 7 25 12 48 11 51
0 3 19 30 44 60 24 30 55 70 68 89 33 48 2988 2994 3059 3050 121 95 226 114
344 63z"/>
<path d="M4676 5754 c-3 -9 -6 -211 -6 -450 l0 -434 -25 5 c-14 3 -37 8 -52
11 -110 24 -252 31 -377 18 -171 -17 -230 -29 -345 -70 -371 -134 -610 -433
-681 -852 -28 -163 -28 -468 0 -635 47 -274 144 -481 292 -624 88 -85 185
-138 338 -184 61 -19 326 -19 400 0 142 35 322 149 442 281 l65 71 7 -152 c4
-84 9 -156 12 -160 9 -14 468 -11 482 3 16 16 18 3139 2 3169 -10 18 -24 19
-279 19 -236 0 -270 -2 -275 -16z m-232 -1299 c69 -5 142 -20 208 -41 17 -5
18 -35 18 -501 l0 -496 -57 -76 c-81 -109 -238 -264 -298 -293 -103 -52 -187
-58 -294 -21 -177 60 -260 271 -261 658 0 217 20 322 91 470 58 122 170 230
282 272 48 18 182 42 212 37 11 -1 56 -6 99 -9z"/>
<path d="M18110 5975 c-333 -50 -555 -198 -674 -449 -76 -161 -96 -283 -96
-583 l0 -233 -365 0 -365 0 0 -235 0 -235 365 0 365 0 0 -805 0 -805 275 0
275 0 0 805 0 805 495 0 495 0 0 235 0 235 -495 0 -495 0 0 210 c0 228 8 284
51 375 77 163 214 224 477 212 123 -6 382 -42 472 -67 19 -6 41 -10 48 -10 9
0 12 56 12 248 l0 247 -143 23 c-78 12 -182 27 -232 32 -121 13 -360 10 -465
-5z"/>
<path d="M10590 5499 l0 -461 -32 5 c-18 4 -93 12 -166 19 -154 14 -343 1
-473 -31 -395 -100 -671 -372 -788 -776 -72 -245 -79 -597 -20 -890 85 -421
311 -688 639 -755 289 -59 575 24 797 234 l83 78 0 -63 c0 -35 3 -101 7 -146
l6 -83 248 0 249 0 0 1665 0 1665 -275 0 -275 0 0 -461z m-184 -924 c43 -8
102 -22 131 -30 l53 -16 0 -490 0 -490 -62 -82 c-142 -186 -311 -333 -429
-372 -74 -25 -170 -17 -239 21 -108 59 -182 196 -215 397 -47 289 -21 603 65
783 65 134 207 247 353 279 84 18 248 18 343 0z"/>
<path d="M12523 5066 c-328 -63 -590 -260 -745 -561 -143 -278 -186 -605 -132
-983 39 -267 136 -477 293 -632 164 -163 354 -248 639 -285 276 -36 730 3
1030 90 l52 16 0 240 c0 203 -2 240 -14 236 -46 -18 -280 -70 -391 -87 -186
-30 -454 -37 -573 -16 -207 36 -351 134 -431 294 -25 50 -61 181 -61 224 l0
28 785 0 c739 0 786 1 793 18 3 9 7 127 6 262 0 217 -2 257 -22 349 -77 353
-237 574 -515 711 -155 77 -264 101 -472 106 -117 2 -192 -1 -242 -10z m287
-457 c150 -24 279 -119 345 -253 34 -68 64 -181 65 -238 l0 -28 -514 0 -514 0
13 58 c47 200 150 349 290 418 106 52 190 64 315 43z"/>
<path d="M20515 5074 c-11 -3 -46 -12 -78 -20 -143 -35 -303 -127 -438 -252
l-69 -64 0 151 0 151 -255 0 -255 0 0 -1205 0 -1205 270 0 270 0 0 748 0 748
85 102 c148 176 317 309 441 347 60 18 142 19 198 3 65 -20 130 -92 155 -172
28 -91 44 -227 36 -308 l-7 -68 276 0 276 0 0 149 c0 421 -131 689 -403 825
-110 55 -173 68 -337 72 -80 1 -154 0 -165 -2z"/>
<path d="M22662 5066 c-398 -76 -697 -351 -831 -765 -49 -150 -66 -274 -65
-481 0 -427 95 -711 309 -926 166 -167 357 -253 645 -290 280 -35 729 5 1028
91 l52 16 0 240 c0 237 0 240 -20 234 -284 -90 -744 -139 -959 -101 -238 42
-383 156 -458 362 -13 37 -26 93 -30 125 l-6 59 786 0 786 0 8 38 c4 20 7 132
7 247 0 233 -15 344 -65 497 -57 175 -130 291 -264 416 -70 65 -109 92 -198
137 -165 82 -268 106 -482 111 -118 2 -192 -1 -243 -10z m303 -461 c203 -43
334 -181 379 -398 28 -133 94 -117 -499 -117 l-515 0 6 28 c32 146 84 259 156
338 127 138 285 188 473 149z"/>
<path d="M27701 5064 c-87 -15 -236 -62 -306 -96 -141 -70 -314 -223 -402
-353 -163 -243 -238 -570 -213 -927 22 -305 95 -525 238 -714 185 -244 498
-384 859 -384 461 0 819 205 1013 582 120 233 167 490 148 816 -36 619 -362
1005 -913 1081 -104 15 -322 12 -424 -5z m379 -490 c84 -25 148 -61 207 -117
145 -137 212 -362 200 -674 -9 -245 -69 -424 -184 -545 -112 -117 -216 -160
-388 -162 -314 -2 -509 180 -570 531 -19 107 -19 342 0 445 55 313 217 499
469 539 70 11 200 3 266 -17z"/>
<path d="M25364 5054 c-161 -27 -326 -91 -459 -180 -85 -56 -230 -196 -292
-282 -84 -118 -164 -310 -200 -482 -26 -122 -25 -474 0 -615 20 -110 65 -252
105 -330 95 -190 273 -361 467 -451 324 -149 819 -152 1230 -7 l80 28 3 272 2
272 -123 -59 c-210 -101 -374 -136 -587 -127 -142 5 -213 22 -319 73 -145 71
-245 206 -291 394 -31 123 -38 329 -15 440 49 243 167 417 346 510 112 58 182
74 324 73 201 -2 344 -36 549 -132 60 -28 110 -51 112 -51 2 0 4 121 4 270 l0
269 -27 14 c-83 42 -274 91 -418 107 -125 14 -394 11 -491 -6z"/>
<path d="M14014 5022 c3 -9 215 -550 470 -1202 l464 -1185 278 -3 279 -2 470
1196 c259 658 472 1200 473 1205 2 5 -125 9 -295 9 l-298 0 -288 -778 c-158
-427 -297 -806 -309 -841 l-21 -64 -41 119 c-23 65 -163 444 -311 842 l-269
722 -304 0 c-285 0 -303 -1 -298 -18z"/>
</g>
</svg>
