<?xml version="1.0" encoding="UTF-8"?>
<!DOCTYPE svg PUBLIC "-//W3C//DTD SVG 1.1//EN" "http://www.w3.org/Graphics/SVG/1.1/DTD/svg11.dtd">
<svg xmlns="http://www.w3.org/2000/svg" version="1.1" width="3000px" height="768px" style="shape-rendering:geometricPrecision; text-rendering:geometricPrecision; image-rendering:optimizeQuality; fill-rule:evenodd; clip-rule:evenodd" xmlns:xlink="http://www.w3.org/1999/xlink">
<g><path style="opacity:0.921" fill="#fefffe" d="M 434.5,34.5 C 438.009,35.7279 441.509,35.7279 445,34.5C 448.225,35.2784 451.225,36.6118 454,38.5C 454.333,38.1667 454.667,37.8333 455,37.5C 459.408,39.5704 463.575,42.0704 467.5,45C 573,150.5 678.5,256 784,361.5C 785.421,364.009 787.088,366.343 789,368.5C 790.248,373.574 792.081,378.741 794.5,384C 793.167,387.333 793.167,390.667 794.5,394C 793.722,397.225 792.388,400.225 790.5,403C 790.833,403.333 791.167,403.667 791.5,404C 789.43,408.408 786.93,412.575 784,416.5C 678.5,522 573,627.5 467.5,733C 464.991,734.421 462.657,736.088 460.5,738C 455.426,739.248 450.259,741.081 445,743.5C 441.667,742.167 438.333,742.167 435,743.5C 431.775,742.722 428.775,741.388 426,739.5C 425.667,739.833 425.333,740.167 425,740.5C 420.592,738.43 416.425,735.93 412.5,733C 307,627.5 201.5,522 96,416.5C 94.5787,413.991 92.9121,411.657 91,409.5C 89.752,404.426 87.9187,399.259 85.5,394C 86.8333,390.667 86.8333,387.333 85.5,384C 86.2784,380.775 87.6118,377.775 89.5,375C 89.1667,374.667 88.8333,374.333 88.5,374C 90.5704,369.592 93.0704,365.425 96,361.5C 201.5,256 307,150.5 412.5,45C 415.009,43.5787 417.343,41.9121 419.5,40C 424.536,38.8402 429.536,37.0069 434.5,34.5 Z M 436.5,46.5 C 441.603,46.1079 446.77,47.4412 452,50.5C 452.333,50.1667 452.667,49.8333 453,49.5C 458.167,53.3333 463.333,57.1667 468.5,61C 568.333,160.833 668.167,260.667 768,360.5C 771.833,365.667 775.667,370.833 779.5,376C 779.167,376.333 778.833,376.667 778.5,377C 783.833,385 783.833,393 778.5,401C 778.833,401.333 779.167,401.667 779.5,402C 775.667,407.167 771.833,412.333 768,417.5C 668.167,517.333 568.333,617.167 468.5,717C 463.333,720.833 458.167,724.667 453,728.5C 452.667,728.167 452.333,727.833 452,727.5C 444,732.833 436,732.833 428,727.5C 427.667,727.833 427.333,728.167 427,728.5C 421.833,724.667 416.667,720.833 411.5,717C 311.667,617.167 211.833,517.333 112,417.5C 108.167,412.333 104.333,407.167 100.5,402C 100.833,401.667 101.167,401.333 101.5,401C 96.1667,393 96.1667,385 101.5,377C 101.167,376.667 100.833,376.333 100.5,376C 104.333,370.833 108.167,365.667 112,360.5C 211.833,260.667 311.667,160.833 411.5,61C 416.667,57.1667 421.833,53.3333 427,49.5C 427.333,49.8333 427.667,50.1667 428,50.5C 430.876,49.0522 433.709,47.7189 436.5,46.5 Z M 431.5,320.5 C 443.094,321.033 454.428,323.033 465.5,326.5C 466.667,359.828 466.833,393.162 466,426.5C 457.288,439.549 446.788,451.049 434.5,461C 419.642,470.013 405.308,469.346 391.5,459C 386.009,453.502 382.175,447.002 380,439.5C 375.697,419.735 374.363,399.735 376,379.5C 378.353,361.404 385.853,345.904 398.5,333C 408.424,325.751 419.424,321.584 431.5,320.5 Z"/></g>
<g><path style="opacity:0.985" fill="#fefffe" d="M 1818.5,168.5 C 1829.51,168.333 1840.51,168.5 1851.5,169C 1865.9,170.401 1880.24,172.234 1894.5,174.5C 1894.5,191.167 1894.5,207.833 1894.5,224.5C 1875.07,220.152 1855.4,217.486 1835.5,216.5C 1811.93,214.846 1796.76,225.179 1790,247.5C 1788.58,263.785 1788.08,280.118 1788.5,296.5C 1821.5,296.5 1854.5,296.5 1887.5,296.5C 1887.5,312.167 1887.5,327.833 1887.5,343.5C 1854.5,343.5 1821.5,343.5 1788.5,343.5C 1788.5,397.167 1788.5,450.833 1788.5,504.5C 1770.17,504.5 1751.83,504.5 1733.5,504.5C 1733.5,450.833 1733.5,397.167 1733.5,343.5C 1709.17,343.5 1684.83,343.5 1660.5,343.5C 1660.5,327.833 1660.5,312.167 1660.5,296.5C 1684.83,296.5 1709.17,296.5 1733.5,296.5C 1733.33,280.163 1733.5,263.83 1734,247.5C 1737.58,210.612 1756.74,186.112 1791.5,174C 1800.52,171.591 1809.52,169.758 1818.5,168.5 Z"/></g>
<g><path style="opacity:0.981" fill="#fefffe" d="M 1058.5,171.5 C 1076.83,171.5 1095.17,171.5 1113.5,171.5C 1113.5,282.5 1113.5,393.5 1113.5,504.5C 1096.83,504.5 1080.17,504.5 1063.5,504.5C 1063.07,494.833 1062.57,485.167 1062,475.5C 1034.44,506.1 1000.94,515.267 961.5,503C 939.308,492.136 924.141,474.969 916,451.5C 903.819,412.247 903.486,372.914 915,333.5C 935.343,284.723 972.176,260.389 1025.5,260.5C 1036.57,260.84 1047.57,261.84 1058.5,263.5C 1058.5,232.833 1058.5,202.167 1058.5,171.5 Z M 1011.5,308.5 C 1027.28,307.241 1042.61,309.241 1057.5,314.5C 1058.67,347.495 1058.83,380.495 1058,413.5C 1048.62,427.218 1037.45,439.385 1024.5,450C 995.106,467.398 975.606,459.564 966,426.5C 959.434,398.631 960.101,370.964 968,343.5C 975.872,323.449 990.372,311.782 1011.5,308.5 Z"/></g>
<g><path style="opacity:0.968" fill="#fefffe" d="M 467.5,190.5 C 485.503,190.333 503.503,190.5 521.5,191C 522.126,191.75 522.626,192.584 523,193.5C 523.667,298.5 523.667,403.5 523,508.5C 522.5,509 522,509.5 521.5,510C 505.833,510.667 490.167,510.667 474.5,510C 473.109,499.599 472.276,489.099 472,478.5C 443.763,514.435 408.263,524.268 365.5,508C 347.381,498.212 334.547,483.712 327,464.5C 316.955,436.656 313.622,407.99 317,378.5C 327.186,311.657 366.186,277.323 434,275.5C 444.603,276.554 455.103,278.221 465.5,280.5C 466.182,250.464 466.848,220.464 467.5,190.5 Z M 431.5,320.5 C 419.424,321.584 408.424,325.751 398.5,333C 385.853,345.904 378.353,361.404 376,379.5C 374.363,399.735 375.697,419.735 380,439.5C 382.175,447.002 386.009,453.502 391.5,459C 405.308,469.346 419.642,470.013 434.5,461C 446.788,451.049 457.288,439.549 466,426.5C 466.833,393.162 466.667,359.828 465.5,326.5C 454.428,323.033 443.094,321.033 431.5,320.5 Z"/></g>
<g><path style="opacity:0.98" fill="#fefffe" d="M 1258.5,259.5 C 1337.31,257.479 1376.98,295.979 1377.5,375C 1377.39,384.521 1376.89,394.021 1376,403.5C 1323.57,404.497 1271.07,404.831 1218.5,404.5C 1221.22,438.384 1239.55,456.884 1273.5,460C 1304.52,461.545 1334.85,457.712 1364.5,448.5C 1365.83,464.5 1365.83,480.5 1364.5,496.5C 1321.99,509.204 1278.99,511.37 1235.5,503C 1195.38,490.294 1171.88,463.127 1165,421.5C 1158.73,388.722 1161.4,356.722 1173,325.5C 1189.53,287.785 1218.03,265.785 1258.5,259.5 Z M 1264.5,305.5 C 1300.51,304.848 1319.51,322.514 1321.5,358.5C 1287.17,358.667 1252.83,358.5 1218.5,358C 1221.52,339.624 1230.18,324.624 1244.5,313C 1250.89,309.377 1257.55,306.877 1264.5,305.5 Z"/></g>
<g><path style="opacity:0.989" fill="#fefffe" d="M 2052.5,259.5 C 2104.94,256.126 2134.44,280.46 2141,332.5C 2141.5,343.161 2141.67,353.828 2141.5,364.5C 2123.17,364.5 2104.83,364.5 2086.5,364.5C 2088.19,350.169 2086.69,336.169 2082,322.5C 2075.24,310.678 2065.07,306.178 2051.5,309C 2044.34,310.914 2037.67,313.914 2031.5,318C 2017.96,328.538 2006.13,340.705 1996,354.5C 1995.5,404.499 1995.33,454.499 1995.5,504.5C 1977.5,504.5 1959.5,504.5 1941.5,504.5C 1941.5,424.167 1941.5,343.833 1941.5,263.5C 1958.5,263.5 1975.5,263.5 1992.5,263.5C 1992.33,273.506 1992.5,283.506 1993,293.5C 2009.12,275.526 2028.95,264.193 2052.5,259.5 Z"/></g>
<g><path style="opacity:0.98" fill="#fefffe" d="M 2272.5,259.5 C 2300.19,256.737 2325.86,262.57 2349.5,277C 2371.78,294.045 2384.95,316.545 2389,344.5C 2392.11,364.49 2392.28,384.49 2389.5,404.5C 2337.17,404.5 2284.83,404.5 2232.5,404.5C 2235.21,438.375 2253.54,456.875 2287.5,460C 2318.51,461.498 2348.85,457.665 2378.5,448.5C 2379.83,464.5 2379.83,480.5 2378.5,496.5C 2337.38,508.675 2295.72,511.175 2253.5,504C 2211.63,492.465 2186.8,465.298 2179,422.5C 2172.52,390.144 2174.85,358.477 2186,327.5C 2202.44,288.881 2231.27,266.214 2272.5,259.5 Z M 2278.5,305.5 C 2313.87,305.532 2332.87,323.199 2335.5,358.5C 2301.16,358.833 2266.83,358.5 2232.5,357.5C 2235.48,336.719 2245.81,320.886 2263.5,310C 2268.54,308.151 2273.54,306.651 2278.5,305.5 Z"/></g>
<g><path style="opacity:0.982" fill="#fefffe" d="M 2777.5,259.5 C 2803.5,257.001 2828.17,261.501 2851.5,273C 2877.37,289.18 2893.53,312.347 2900,342.5C 2906.96,376.147 2904.63,409.147 2893,441.5C 2874.92,481.888 2843.76,504.055 2799.5,508C 2727.99,511.143 2687.49,477.31 2678,406.5C 2674.69,378.664 2678.02,351.664 2688,325.5C 2705.61,286.793 2735.44,264.793 2777.5,259.5 Z M 2785.5,307.5 C 2817,306.493 2836.84,321.16 2845,351.5C 2849.93,373.919 2849.6,396.252 2844,418.5C 2830.44,455.034 2804.94,467.534 2767.5,456C 2750.46,448.099 2739.96,434.932 2736,416.5C 2730.26,390.766 2731.6,365.432 2740,340.5C 2748.91,320.741 2764.08,309.741 2785.5,307.5 Z"/></g>
<g><path style="opacity:0.979" fill="#fefffe" d="M 2543.5,260.5 C 2565.78,259.229 2587.78,261.062 2609.5,266C 2615.99,267.94 2622.32,270.273 2628.5,273C 2629.82,291.102 2629.82,309.269 2628.5,327.5C 2607.57,315.58 2585.07,309.246 2561,308.5C 2526.82,311.348 2505.49,329.348 2497,362.5C 2491.38,387.817 2494.71,411.817 2507,434.5C 2517.81,448.161 2531.98,455.994 2549.5,458C 2578.08,460.73 2604.58,454.563 2629,439.5C 2629.67,457.5 2629.67,475.5 2629,493.5C 2595.64,507.066 2561.14,510.899 2525.5,505C 2472.37,492.528 2443.54,459.028 2439,404.5C 2434.65,367.548 2442.98,333.881 2464,303.5C 2476.7,288.116 2492.2,276.616 2510.5,269C 2521.35,265.038 2532.35,262.205 2543.5,260.5 Z"/></g>
<g><path style="opacity:0.982" fill="#fefffe" d="M 1400.5,263.5 C 1420.84,263.167 1441.18,263.5 1461.5,264.5C 1482.3,320.051 1502.8,375.718 1523,431.5C 1543.81,375.58 1564.31,319.58 1584.5,263.5C 1604.51,263.167 1624.51,263.5 1644.5,264.5C 1612.59,344.308 1581.26,424.308 1550.5,504.5C 1531.59,504.826 1512.76,504.493 1494,503.5C 1462.54,423.59 1431.38,343.59 1400.5,263.5 Z"/></g>
</svg>
