<?xml version="1.0" encoding="UTF-8"?>
<!DOCTYPE svg PUBLIC "-//W3C//DTD SVG 1.1//EN" "http://www.w3.org/Graphics/SVG/1.1/DTD/svg11.dtd">
<svg xmlns="http://www.w3.org/2000/svg" version="1.1" width="512px" height="512px" style="shape-rendering:geometricPrecision; text-rendering:geometricPrecision; image-rendering:optimizeQuality; fill-rule:evenodd; clip-rule:evenodd" xmlns:xlink="http://www.w3.org/1999/xlink">
<g><path style="opacity:0.889" fill="#fefffe" d="M 247.5,25.5 C 253.334,25.5237 259.167,25.5237 265,25.5C 268.442,26.219 271.775,27.8857 275,30.5C 277.61,30.6532 279.943,31.9865 282,34.5C 282.333,34.1667 282.667,33.8333 283,33.5C 347.667,98.8333 412.333,164.167 477,229.5C 480.405,235.373 483.239,241.539 485.5,248C 485.5,253.667 485.5,259.333 485.5,265C 484.12,266.324 483.786,267.657 484.5,269C 482.412,274.213 479.579,279.38 476,284.5C 411.5,348.333 347,412.167 282.5,476C 276.521,480.112 270.021,483.278 263,485.5C 257.333,485.5 251.667,485.5 246,485.5C 244.676,484.12 243.343,483.786 242,484.5C 236.45,482.069 230.95,478.903 225.5,475C 161.833,410.667 98.1667,346.333 34.5,282C 34.8333,281.667 35.1667,281.333 35.5,281C 30.6733,275.876 27.34,269.876 25.5,263C 25.5,257.333 25.5,251.667 25.5,246C 26.8802,244.676 27.2135,243.343 26.5,242C 28.5878,236.787 31.4212,231.62 35,226.5C 99.5,162.667 164,98.8333 228.5,35C 234.438,30.97 240.771,27.8033 247.5,25.5 Z M 252.5,37.5 C 261.222,36.3911 269.055,39.0578 276,45.5C 276.333,45.1667 276.667,44.8333 277,44.5C 337.973,105.14 398.64,166.14 459,227.5C 464.745,234.384 469.579,241.884 473.5,250C 472.796,252.98 472.796,256.146 473.5,259.5C 470.996,269.494 466.163,278.161 459,285.5C 400.5,343.333 342,401.167 283.5,459C 276.209,465.958 267.709,470.791 258,473.5C 255.789,473.377 253.622,473.377 251.5,473.5C 248.833,472.877 246.333,471.877 244,470.5C 240.925,470.632 238.258,469.299 236,466.5C 235.667,466.833 235.333,467.167 235,467.5C 173.36,406.193 112.027,344.527 51,282.5C 33.0937,263.26 33.4271,244.26 52,225.5C 110.5,167.667 169,109.833 227.5,52C 234.785,45.1831 243.119,40.3498 252.5,37.5 Z M 240.5,208.5 C 249.546,208.236 258.546,208.736 267.5,210C 271.508,211.113 275.341,212.613 279,214.5C 279.667,237.833 279.667,261.167 279,284.5C 270.455,297.379 259.621,307.879 246.5,316C 232.879,321.054 222.046,317.554 214,305.5C 208.298,292.577 205.465,279.077 205.5,265C 205.406,251.075 208.573,237.908 215,225.5C 221.454,216.695 229.954,211.028 240.5,208.5 Z"/></g>
<g><path style="opacity:0.949" fill="#fefffe" d="M 279.5,126.5 C 288.833,126.5 298.167,126.5 307.5,126.5C 307.5,197.167 307.5,267.833 307.5,338.5C 299.167,338.5 290.833,338.5 282.5,338.5C 282.876,329.765 282.376,321.098 281,312.5C 260.591,341.64 234.425,348.473 202.5,333C 189.575,320.984 182.075,306.15 180,288.5C 176.512,266.938 178.512,245.938 186,225.5C 199.61,198.681 221.61,185.347 252,185.5C 261.217,185.699 270.217,187.032 279,189.5C 279.5,168.503 279.667,147.503 279.5,126.5 Z M 240.5,208.5 C 229.954,211.028 221.454,216.695 215,225.5C 208.573,237.908 205.406,251.075 205.5,265C 205.465,279.077 208.298,292.577 214,305.5C 222.046,317.554 232.879,321.054 246.5,316C 259.621,307.879 270.455,297.379 279,284.5C 279.667,261.167 279.667,237.833 279,214.5C 275.341,212.613 271.508,211.113 267.5,210C 258.546,208.736 249.546,208.236 240.5,208.5 Z"/></g>
</svg>
