<?xml version="1.0" standalone="no"?>
<!DOCTYPE svg PUBLIC "-//W3C//DTD SVG 20010904//EN"
 "http://www.w3.org/TR/2001/REC-SVG-20010904/DTD/svg10.dtd">
<svg version="1.0" xmlns="http://www.w3.org/2000/svg"
 width="512.000000pt" height="512.000000pt" viewBox="0 0 512.000000 512.000000"
 preserveAspectRatio="xMidYMid meet">
<metadata>
Created by potrace 1.16, written by Peter Selinger 2001-2019
</metadata>
<g transform="translate(0.000000,512.000000) scale(0.100000,-0.100000)"
fill="#000000" stroke="none">
<path d="M2430 4838 c-30 -11 -68 -30 -85 -43 -16 -12 -35 -24 -41 -26 -15 -5
-1948 -1918 -1953 -1933 -2 -6 -15 -26 -29 -43 -13 -18 -21 -33 -18 -33 4 0
-1 -11 -9 -24 -23 -34 -28 -61 -31 -160 -3 -99 17 -172 65 -236 14 -19 26 -38
26 -41 0 -10 1894 -1922 1920 -1939 13 -8 37 -25 54 -38 17 -13 31 -20 31 -17
0 4 12 0 26 -10 38 -25 60 -29 169 -29 106 -1 155 12 220 59 17 12 35 24 41
26 15 5 1948 1918 1953 1933 2 6 15 26 29 44 13 17 21 32 17 32 -4 0 0 12 10
26 25 39 29 60 29 174 0 110 -1 113 -66 232 -14 26 -1946 1983 -1957 1983 -3
0 -21 10 -38 23 -18 13 -33 20 -33 17 0 -4 -12 0 -26 10 -36 24 -58 28 -159
31 -71 2 -102 -2 -145 -18z m245 -117 c16 -7 44 -23 61 -36 17 -13 34 -21 38
-18 6 6 1421 -1414 1734 -1740 83 -87 159 -173 168 -190 59 -113 61 -119 59
-193 -2 -50 -9 -86 -22 -111 -11 -21 -28 -54 -38 -73 -10 -19 -372 -386 -804
-815 -890 -884 -1089 -1077 -1134 -1101 -89 -47 -110 -54 -162 -58 -32 -2 -72
0 -89 6 -17 5 -39 11 -50 13 -10 2 -30 12 -45 22 -14 10 -30 16 -35 15 -9 -3
-1436 1430 -1749 1756 -152 159 -181 198 -210 291 -19 57 -13 153 11 200 10
20 27 52 37 71 10 19 372 386 804 815 854 848 1089 1077 1130 1100 52 29 97
48 126 55 44 10 135 5 170 -9z"/>
<path d="M2813 3853 c-10 -4 -13 -77 -13 -317 l0 -313 -47 10 c-27 5 -115 11
-197 14 -130 4 -159 2 -235 -18 -254 -65 -418 -225 -497 -485 -26 -84 -28
-100 -28 -299 -1 -188 2 -219 22 -295 62 -231 168 -358 361 -431 20 -7 76 -12
140 -12 88 1 117 5 171 25 108 41 195 106 292 215 l36 41 4 -124 c2 -97 6
-127 18 -134 22 -14 213 -13 228 2 9 9 12 257 12 1054 0 573 -3 1049 -6 1058
-5 13 -26 16 -128 15 -66 0 -127 -3 -133 -6z m-110 -858 c107 -28 97 12 97
-376 l0 -341 -47 -61 c-199 -262 -399 -343 -543 -220 -96 82 -140 228 -140
464 0 226 49 378 151 463 47 40 121 75 181 86 69 12 228 4 301 -15z"/>
</g>
</svg>
